<?xml version="1.0" encoding="UTF-8"?>
<svg enable-background="new 0 0 463 500" version="1.1" viewBox="0 0 463 500" xml:space="preserve" xmlns="http://www.w3.org/2000/svg" xmlns:xlink="http://www.w3.org/1999/xlink">
<style type="text/css">
	.st0{fill:#FFFFFF;}
	.st1{fill:#12436B;}
	.st2{clip-path:url(#a);}
	.st3{fill:#0C3962;}
	.st4{fill:#1BBC9B;}
	.st5{enable-background:new    ;}
</style>
<title>-</title>

	<path class="st0" d="m122.3 127.7h218.5c67.5 0 122.3 54.7 122.3 122.3 0 67.5-54.7 122.3-122.3 122.3h-218.5c-67.6 0-122.3-54.8-122.3-122.3s54.7-122.3 122.3-122.3z"/>
	<path class="st1" d="m122.3 144h218.5c58.5 0 106 47.5 106 106s-47.5 106-106 106h-218.5c-58.5 0-106-47.5-106-106s47.4-106 106-106z"/>
	<path class="st0" d="m335.8 351c-0.6 0-1-0.4-1-1s0.4-1 1-1 1 0.4 1 1-0.5 1-1 1zm3.3 0c-0.6 0-1-0.4-1-1s0.4-1 1-1 1 0.4 1 1-0.4 1-1 1zm-7.3 0c-0.6 0-1-0.4-1-1s0.4-1 1-1 1 0.4 1 1-0.5 1-1 1zm-4 0c-0.6 0-1-0.4-1-1s0.4-1 1-1 1 0.4 1 1-0.5 1-1 1zm-4 0c-0.6 0-1-0.4-1-1s0.4-1 1-1 1 0.4 1 1-0.5 1-1 1zm-4 0c-0.6 0-1-0.4-1-1s0.4-1 1-1 1 0.4 1 1-0.5 1-1 1zm-4 0c-0.6 0-1-0.4-1-1s0.4-1 1-1 1 0.4 1 1-0.5 1-1 1zm-4 0c-0.6 0-1-0.4-1-1s0.4-1 1-1 1 0.4 1 1-0.5 1-1 1zm-4 0c-0.6 0-1-0.4-1-1s0.4-1 1-1 1 0.4 1 1-0.5 1-1 1zm-4 0c-0.6 0-1-0.4-1-1s0.4-1 1-1 1 0.4 1 1-0.5 1-1 1zm-4 0c-0.6 0-1-0.4-1-1s0.4-1 1-1 1 0.4 1 1-0.5 1-1 1zm-4 0c-0.6 0-1-0.4-1-1s0.4-1 1-1 1 0.4 1 1-0.5 1-1 1zm-4 0c-0.6 0-1-0.4-1-1s0.4-1 1-1 1 0.4 1 1-0.5 1-1 1zm-4 0c-0.6 0-1-0.4-1-1s0.4-1 1-1 1 0.4 1 1-0.5 1-1 1zm-4 0c-0.6 0-1-0.4-1-1s0.4-1 1-1 1 0.4 1 1-0.5 1-1 1zm-4 0c-0.6 0-1-0.4-1-1s0.4-1 1-1 1 0.4 1 1-0.5 1-1 1zm-4 0c-0.6 0-1-0.4-1-1s0.4-1 1-1 1 0.4 1 1-0.5 1-1 1zm-4 0c-0.6 0-1-0.4-1-1s0.4-1 1-1 1 0.4 1 1-0.5 1-1 1zm-4 0c-0.6 0-1-0.4-1-1s0.4-1 1-1 1 0.4 1 1-0.5 1-1 1zm-4 0c-0.6 0-1-0.4-1-1s0.4-1 1-1 1 0.4 1 1-0.5 1-1 1zm-4 0c-0.6 0-1-0.4-1-1s0.4-1 1-1 1 0.4 1 1-0.5 1-1 1zm-4 0c-0.6 0-1-0.4-1-1s0.4-1 1-1 1 0.4 1 1-0.5 1-1 1zm-4 0c-0.6 0-1-0.4-1-1s0.4-1 1-1 1 0.4 1 1-0.5 1-1 1zm-4 0c-0.6 0-1-0.4-1-1s0.4-1 1-1 1 0.4 1 1-0.5 1-1 1zm-4 0c-0.6 0-1-0.4-1-1s0.4-1 1-1 1 0.4 1 1-0.5 1-1 1zm-4 0c-0.6 0-1-0.4-1-1s0.4-1 1-1 1 0.4 1 1-0.5 1-1 1zm-4 0c-0.6 0-1-0.4-1-1s0.4-1 1-1 1 0.4 1 1-0.5 1-1 1zm-4 0c-0.6 0-1-0.4-1-1s0.4-1 1-1 1 0.4 1 1-0.5 1-1 1zm-4 0c-0.6 0-1-0.4-1-1s0.4-1 1-1 1 0.4 1 1-0.5 1-1 1zm-4 0c-0.6 0-1-0.4-1-1s0.4-1 1-1 1 0.4 1 1-0.5 1-1 1zm-4 0c-0.6 0-1-0.4-1-1s0.4-1 1-1 1 0.4 1 1-0.5 1-1 1zm-4 0c-0.6 0-1-0.4-1-1s0.4-1 1-1 1 0.4 1 1-0.5 1-1 1zm-4 0c-0.6 0-1-0.4-1-1s0.4-1 1-1 1 0.4 1 1-0.5 1-1 1zm-4 0c-0.6 0-1-0.4-1-1s0.4-1 1-1 1 0.4 1 1-0.5 1-1 1zm-4 0c-0.6 0-1-0.4-1-1s0.4-1 1-1 1 0.4 1 1-0.5 1-1 1zm-4 0c-0.6 0-1-0.4-1-1s0.4-1 1-1 1 0.4 1 1-0.5 1-1 1zm-4 0c-0.6 0-1-0.4-1-1s0.4-1 1-1 1 0.4 1 1-0.5 1-1 1zm-4 0c-0.6 0-1-0.4-1-1s0.4-1 1-1 1 0.4 1 1-0.5 1-1 1zm-4 0c-0.6 0-1-0.4-1-1s0.4-1 1-1 1 0.4 1 1-0.5 1-1 1zm-4 0c-0.6 0-1-0.4-1-1s0.4-1 1-1 1 0.4 1 1-0.5 1-1 1zm-4 0c-0.6 0-1-0.4-1-1s0.4-1 1-1 1 0.4 1 1-0.5 1-1 1zm-4 0c-0.6 0-1-0.4-1-1s0.4-1 1-1 1 0.4 1 1-0.5 1-1 1zm-4 0c-0.6 0-1-0.4-1-1s0.4-1 1-1 1 0.4 1 1-0.5 1-1 1zm-4 0c-0.6 0-1-0.4-1-1s0.4-1 1-1 1 0.4 1 1-0.5 1-1 1zm-4 0c-0.6 0-1-0.4-1-1s0.4-1 1-1 1 0.4 1 1-0.5 1-1 1zm-4 0c-0.6 0-1-0.4-1-1s0.4-1 1-1 1 0.4 1 1-0.5 1-1 1zm-4 0c-0.6 0-1-0.4-1-1s0.4-1 1-1 1 0.4 1 1-0.5 1-1 1zm-4 0c-0.6 0-1-0.4-1-1s0.4-1 1-1 1 0.4 1 1-0.5 1-1 1zm-4 0c-0.6 0-1-0.4-1-1s0.4-1 1-1 1 0.4 1 1-0.5 1-1 1zm-4 0c-0.6 0-1-0.4-1-1s0.4-1 1-1 1 0.4 1 1-0.5 1-1 1zm-4 0c-0.6 0-1-0.4-1-1s0.4-1 1-1 1 0.4 1 1-0.5 1-1 1zm-4 0c-0.6 0-1-0.4-1-1s0.4-1 1-1 1 0.4 1 1-0.5 1-1 1zm-4 0c-0.6 0-1-0.4-1-1s0.4-1 1-1 1 0.4 1 1-0.5 1-1 1zm-4 0c-0.6 0-1-0.4-1-1s0.4-1 1-1 1 0.4 1 1c0 0.5-0.5 1-1 1zm-4 0c-0.6 0-1-0.4-1-1s0.4-1 1-1 1 0.4 1 1c0 0.5-0.5 1-1 1zm-4 0c-0.6 0-1-0.4-1-1 0-0.5 0.5-1 1-1 0.6 0 1 0.4 1 1-0.1 0.6-0.5 1-1 1zm224.7-1c0-0.5 0.4-1 1-1 0.5 0 1 0.4 1 0.9s-0.4 1-0.9 1c-0.6 0-1.1-0.4-1.1-0.9v0zm-3.2 0.1c0-0.6 0.4-1 1-1s1 0.4 1 1-0.4 1-1 1c-0.5 0-1-0.4-1-1zm-225.6 0.7c-0.5 0-1-0.5-0.9-1.1 0-0.5 0.5-0.9 1-0.9s0.9 0.5 0.9 1c0 0.6-0.5 1-1 1zm232.6-1c0-0.5 0.4-1 0.9-1s1 0.4 1.1 0.9c0 0.5-0.4 1-0.9 1.1-0.6-0.1-1.1-0.5-1.1-1-0.1 0-0.1-0.1 0 0zm-236.6 0.7c-0.5-0.1-0.9-0.6-0.9-1.1 0.1-0.5 0.5-0.9 1.1-0.9 0.5 0.1 0.9 0.5 0.9 1.1-0.1 0.5-0.6 0.9-1.1 0.9zm240.5-1.1c-0.1-0.5 0.3-1 0.9-1.1 0.5-0.1 1 0.3 1.1 0.8s-0.3 1-0.9 1.1c-0.5 0.1-1-0.2-1.1-0.8zm-244.5 0.6c-0.5-0.1-0.9-0.6-0.8-1.1s0.6-0.9 1.1-0.8 0.9 0.6 0.8 1.1-0.6 0.9-1.1 0.8zm248.5-1.1c-0.1-0.5 0.3-1 0.8-1.1s1 0.3 1.1 0.8-0.3 1.1-0.8 1.1c-0.5 0.1-1-0.3-1.1-0.8v0zm-252.5 0.4c-0.5-0.1-0.9-0.6-0.8-1.2 0.1-0.5 0.6-0.9 1.2-0.8 0.5 0.1 0.9 0.6 0.8 1.1-0.2 0.7-0.7 1-1.2 0.9zm256.4-1.1c-0.1-0.5 0.2-1 0.8-1.2 0.5-0.1 1 0.2 1.2 0.8 0.1 0.5-0.2 1.1-0.8 1.2-0.5 0.1-1.1-0.3-1.2-0.8v0zm-260.4 0.3c-0.5-0.1-0.9-0.7-0.7-1.2 0.1-0.5 0.7-0.9 1.2-0.7 0.5 0.1 0.9 0.6 0.8 1.2-0.2 0.5-0.7 0.8-1.3 0.7zm264.3-1.2c-0.1-0.5 0.2-1.1 0.7-1.2s1.1 0.2 1.2 0.7-0.2 1.1-0.7 1.2c-0.5 0.2-1.1-0.1-1.2-0.7zm-268.2 0.2c-0.5-0.2-0.8-0.7-0.7-1.2 0.2-0.5 0.7-0.8 1.2-0.7s0.8 0.7 0.7 1.2-0.7 0.8-1.2 0.7zm272.1-1.2c-0.1-0.5 0.2-1.1 0.7-1.2s1.1 0.1 1.2 0.7c0.2 0.5-0.1 1.1-0.7 1.2-0.5 0.1-1.1-0.2-1.2-0.7zm-276 0.1c-0.5-0.2-0.8-0.7-0.6-1.3 0.2-0.5 0.7-0.8 1.2-0.6s0.8 0.7 0.7 1.2c-0.2 0.5-0.8 0.8-1.3 0.7zm279.8-1.3c-0.2-0.5 0.1-1.1 0.6-1.2 0.5-0.2 1.1 0.1 1.3 0.6s-0.1 1.1-0.6 1.3c-0.6 0.1-1.1-0.2-1.3-0.7zm-283.6 0c-0.5-0.2-0.8-0.8-0.6-1.3s0.7-0.8 1.3-0.6c0.5 0.2 0.8 0.7 0.6 1.3-0.3 0.5-0.8 0.8-1.3 0.6zm287.4-1.3c-0.2-0.5 0.1-1.1 0.6-1.3s1.1 0.1 1.3 0.5c0.2 0.5-0.1 1.1-0.6 1.3-0.5 0.3-1.1 0-1.3-0.5zm-291.2-0.2c-0.5-0.2-0.8-0.8-0.5-1.3 0.2-0.5 0.8-0.7 1.3-0.5s0.7 0.8 0.6 1.3c-0.3 0.5-0.9 0.7-1.4 0.5zm294.9-1.3c-0.2-0.5 0-1.1 0.5-1.3s1.1 0 1.3 0.5 0 1.1-0.5 1.3c-0.5 0.3-1.1 0-1.3-0.5zm-298.6-0.3c-0.5-0.2-0.7-0.8-0.5-1.3s0.8-0.7 1.3-0.5 0.7 0.8 0.5 1.3-0.8 0.7-1.3 0.5zm302.3-1.3c-0.2-0.5 0-1.1 0.5-1.3s1.1 0 1.3 0.5 0 1.1-0.5 1.3-1.1 0-1.3-0.5zm-306-0.4c-0.5-0.3-0.7-0.9-0.4-1.3 0.3-0.5 0.8-0.7 1.3-0.4 0.5 0.2 0.7 0.8 0.4 1.3-0.2 0.4-0.8 0.6-1.3 0.4zm309.6-1.3c-0.2-0.5-0.1-1.1 0.4-1.3s1.1-0.1 1.3 0.4c0.3 0.5 0.1 1.1-0.4 1.4-0.5 0.2-1.1 0-1.3-0.5zm-313.1-0.6c-0.5-0.3-0.7-0.9-0.4-1.4s0.9-0.6 1.3-0.4c0.5 0.3 0.6 0.9 0.4 1.3-0.2 0.6-0.8 0.8-1.3 0.5zm316.6-1.3c-0.3-0.5-0.1-1.1 0.4-1.3 0.5-0.3 1.1-0.1 1.3 0.4 0.3 0.5 0.1 1.1-0.4 1.4-0.4 0.1-1 0-1.3-0.5zm-320.1-0.7c-0.5-0.3-0.7-0.9-0.4-1.4s0.9-0.6 1.4-0.3 0.6 0.9 0.3 1.4c-0.3 0.4-0.9 0.5-1.3 0.3zm323.5-1.4c-0.3-0.5-0.1-1.1 0.3-1.4 0.5-0.3 1-0.2 1.4 0.3 0.3 0.5 0.2 1.1-0.3 1.4s-1.1 0.2-1.4-0.3zm-327-0.9c-0.5-0.3-0.6-0.9-0.3-1.4 0.3-0.4 0.9-0.6 1.4-0.3 0.4 0.3 0.6 0.9 0.3 1.4s-0.9 0.7-1.4 0.3v0zm330.3-1.3c-0.3-0.4-0.2-1 0.3-1.4 0.4-0.3 1.1-0.2 1.4 0.2s0.2 1.1-0.2 1.4c-0.5 0.4-1.1 0.3-1.5-0.2zm-333.6-1c-0.4-0.3-0.5-0.9-0.2-1.4 0.3-0.4 0.9-0.5 1.4-0.2 0.4 0.3 0.5 0.9 0.2 1.4s-0.9 0.6-1.4 0.2v0zm336.9-1.2c-0.3-0.4-0.2-1 0.2-1.4 0.4-0.3 1-0.2 1.4 0.2 0.3 0.4 0.2 1.1-0.2 1.4s-1.1 0.2-1.4-0.2zm-340.1-1.1c-0.4-0.3-0.5-1-0.2-1.4s0.9-0.5 1.4-0.2c0.4 0.3 0.5 0.9 0.2 1.4-0.3 0.4-1 0.5-1.4 0.2zm343.3-1.4c-0.3-0.4-0.3-1 0.1-1.4 0.4-0.3 1-0.3 1.4 0.1 0.3 0.4 0.3 1-0.1 1.4-0.5 0.4-1.1 0.4-1.4-0.1zm-346.4-1.2c-0.4-0.4-0.5-1-0.1-1.4s1-0.4 1.4-0.1c0.4 0.4 0.5 1 0.1 1.4s-1 0.4-1.4 0.1zm349.4-1.3c-0.3-0.4-0.3-1 0.1-1.4s1-0.3 1.4 0.1 0.3 1-0.1 1.4-1 0.3-1.4-0.1zm-352.5-1.4c-0.4-0.4-0.4-1 0-1.4s1-0.4 1.4 0 0.4 1 0.1 1.4c-0.4 0.4-1 0.4-1.5 0 0.1 0 0.1 0 0 0zm355.5-1.3c-0.4-0.4-0.4-1 0-1.4s1-0.4 1.4 0 0.4 1 0 1.4-1 0.4-1.4 0zm-358.4-1.5c-0.4-0.4-0.4-1 0-1.4s1-0.4 1.4 0 0.4 1 0 1.4-1 0.4-1.4 0zm361.3-1.3c-0.4-0.4-0.4-1 0-1.4s1-0.4 1.4 0 0.4 1 0 1.4c-0.5 0.4-1.1 0.4-1.4 0zm-364.1-1.6c-0.4-0.4-0.3-1 0.1-1.4s1-0.3 1.4 0.1 0.4 1 0 1.4c-0.4 0.3-1.1 0.3-1.5-0.1zm366.8-1.3c-0.4-0.4-0.4-1-0.1-1.4 0.4-0.4 1-0.4 1.4-0.1 0.4 0.4 0.5 1 0.1 1.4s-1 0.4-1.4 0.1zm-369.5-1.7c-0.3-0.4-0.3-1 0.1-1.4 0.4-0.3 1-0.3 1.4 0.1 0.3 0.4 0.3 1-0.1 1.4-0.4 0.3-1 0.3-1.4-0.1zm372.1-1.3c-0.4-0.4-0.5-1-0.1-1.4 0.3-0.4 1-0.5 1.4-0.1 0.4 0.3 0.5 1 0.1 1.4-0.3 0.4-0.9 0.4-1.4 0.1zm-374.6-1.8c-0.3-0.4-0.2-1 0.2-1.4 0.4-0.3 1-0.2 1.4 0.2 0.3 0.4 0.3 1-0.2 1.4-0.4 0.3-1.1 0.2-1.4-0.2zm377.2-1.3c-0.4-0.3-0.5-0.9-0.2-1.4 0.3-0.4 0.9-0.5 1.4-0.2 0.4 0.3 0.5 1 0.2 1.4s-1 0.5-1.4 0.2zm-379.6-2c-0.3-0.4-0.2-1.1 0.2-1.4s1.1-0.2 1.4 0.2 0.2 1-0.2 1.4-1.1 0.3-1.4-0.2v0zm382-1.2c-0.4-0.3-0.5-0.9-0.2-1.4 0.3-0.4 0.9-0.6 1.4-0.3 0.4 0.3 0.6 0.9 0.3 1.4-0.4 0.5-1.1 0.6-1.5 0.3 0 0-0.1 0 0 0zm-384.3-2c-0.3-0.5-0.2-1.1 0.3-1.4s1.1-0.2 1.4 0.3c0.3 0.4 0.2 1-0.3 1.4-0.5 0.2-1.1 0.1-1.4-0.3v0zm386.5-1.3c-0.4-0.3-0.6-0.9-0.3-1.4 0.3-0.4 0.9-0.6 1.4-0.3s0.6 0.9 0.3 1.4c-0.3 0.4-1 0.6-1.4 0.3v0zm-388.7-2.2c-0.3-0.5-0.1-1.1 0.3-1.4 0.5-0.3 1.1-0.1 1.3 0.3 0.3 0.5 0.1 1.1-0.3 1.4s-1 0.2-1.3-0.3zm390.8-1.3c-0.5-0.3-0.6-0.9-0.4-1.4 0.3-0.5 0.9-0.6 1.4-0.4 0.5 0.3 0.6 0.9 0.4 1.4-0.3 0.6-0.9 0.7-1.4 0.4zm-392.8-2.2c-0.3-0.5-0.1-1.1 0.4-1.4 0.5-0.2 1.1-0.1 1.3 0.4s0.1 1.1-0.4 1.3c-0.5 0.4-1 0.2-1.3-0.3zm394.8-1.2c-0.5-0.3-0.6-0.9-0.4-1.3 0.3-0.5 0.8-0.7 1.3-0.4s0.7 0.9 0.4 1.3c-0.2 0.4-0.8 0.6-1.3 0.4zm-396.7-2.3c-0.2-0.5 0-1.1 0.5-1.3s1.1 0 1.3 0.4c0.2 0.5 0.1 1.1-0.4 1.3-0.5 0.3-1.1 0.1-1.4-0.4zm398.5-1.3c-0.5-0.2-0.7-0.8-0.5-1.3s0.8-0.7 1.3-0.5 0.7 0.8 0.5 1.3-0.8 0.7-1.3 0.5zm-400.2-2.3c-0.2-0.5 0-1.1 0.5-1.3s1.1 0 1.3 0.5 0 1.1-0.5 1.3-1.1-0.1-1.3-0.5zm402-1.3c-0.5-0.2-0.7-0.8-0.5-1.3s0.8-0.7 1.3-0.5 0.8 0.8 0.5 1.3c-0.2 0.5-0.8 0.7-1.3 0.5-0.1 0-0.1 0 0 0zm-403.6-2.5c-0.2-0.5 0.1-1.1 0.6-1.3s1.1 0.1 1.3 0.5c0.2 0.5 0 1.1-0.5 1.3-0.6 0.3-1.2 0.1-1.4-0.5v0zm405.1-1.2c-0.5-0.2-0.8-0.8-0.6-1.3s0.8-0.8 1.3-0.6 0.8 0.8 0.6 1.3-0.8 0.8-1.3 0.6zm-406.6-2.5c-0.2-0.5 0.1-1.1 0.6-1.3s1.1 0.1 1.3 0.6-0.1 1.1-0.6 1.3c-0.5 0.1-1.1-0.1-1.3-0.6zm408-1.3c-0.5-0.2-0.8-0.7-0.6-1.3 0.2-0.5 0.7-0.8 1.2-0.6s0.8 0.7 0.6 1.3c-0.1 0.5-0.7 0.8-1.2 0.6zm-409.3-2.5c-0.2-0.5 0.1-1.1 0.7-1.2 0.5-0.1 1.1 0.1 1.2 0.6 0.2 0.5-0.1 1.1-0.6 1.2-0.6 0.2-1.1-0.1-1.3-0.6zm410.5-1.3c-0.5-0.2-0.8-0.7-0.6-1.2s0.7-0.8 1.2-0.7c0.5 0.2 0.8 0.7 0.7 1.2-0.2 0.5-0.7 0.8-1.3 0.7zm-411.6-2.6c-0.1-0.5 0.2-1.1 0.7-1.2s1.1 0.2 1.2 0.7-0.2 1-0.7 1.2c-0.5 0.1-1.1-0.2-1.2-0.7zm412.7-1.3c-0.5-0.1-0.8-0.7-0.7-1.2s0.7-0.8 1.2-0.7 0.9 0.7 0.7 1.2c-0.1 0.6-0.7 0.9-1.2 0.7zm-413.7-2.6c-0.1-0.5 0.2-1.1 0.8-1.2 0.5-0.1 1.1 0.2 1.2 0.8 0.1 0.5-0.2 1-0.7 1.2-0.6 0-1.2-0.3-1.3-0.8zm414.6-1.2c-0.5-0.1-0.9-0.6-0.8-1.2 0.1-0.5 0.6-0.9 1.2-0.8 0.5 0.1 0.9 0.6 0.8 1.2-0.1 0.5-0.6 0.9-1.2 0.8zm-415.4-2.8c-0.1-0.5 0.3-1.1 0.8-1.1 0.5-0.1 1 0.3 1.1 0.8s-0.2 1-0.8 1.1c-0.5 0.1-1-0.2-1.1-0.8zm416.2-1.2c-0.5-0.1-0.9-0.6-0.8-1.1s0.6-0.9 1.1-0.8 0.9 0.6 0.8 1.1c0 0.6-0.5 0.9-1.1 0.8zm-416.9-2.8c-0.1-0.5 0.3-1 0.9-1.1 0.5-0.1 1 0.3 1.1 0.8s-0.3 1-0.8 1.1c-0.6 0.1-1.1-0.2-1.2-0.8zm417.6-1.1c-0.5-0.1-0.9-0.6-0.9-1.1 0.1-0.5 0.6-0.9 1.1-0.9 0.5 0.1 0.9 0.6 0.9 1.1-0.1 0.6-0.6 1-1.1 0.9-0.1 0-0.1 0 0 0zm-418-2.9c0-0.5 0.3-1 0.9-1.1 0.5 0 1 0.4 1.1 0.9 0 0.5-0.3 1-0.9 1.1s-1.1-0.3-1.1-0.9c-0.1 0.1-0.1 0 0 0zm418.4-1.1c-0.5-0.1-0.9-0.5-0.9-1.1 0-0.5 0.5-0.9 1-0.9s1 0.5 0.9 1.1c0.1 0.6-0.4 1-1 0.9zm-418.8-2.9c0-0.5 0.4-1 0.9-1.1 0.5 0 1 0.4 1 0.9s-0.4 1-0.9 1c-0.5 0.1-1-0.3-1-0.8zm419.1-1.1c-0.5 0-0.9-0.5-0.9-1s0.5-1 1-0.9c0.6 0 1 0.4 1 1-0.1 0.5-0.5 0.9-1.1 0.9zm0.1-4c-0.5 0-0.9-0.5-0.9-1 0-0.6 0.4-1 1-1s1 0.4 1 1-0.5 1-1.1 1zm-419.4 1c0-0.6 0.4-1 1-1s1 0.4 1 1c0 0.5-0.4 1-0.9 1-0.6 0.1-1.1-0.4-1.1-1v0zm1-3c-0.6 0-1-0.4-1-1s0.4-1 1-1 1 0.4 1 1-0.5 1-1 1zm417.4-3c0-0.5 0.4-1 0.9-1 0.6 0 1 0.4 1 1s-0.4 1-1 1c-0.5 0-0.9-0.4-0.9-1zm-417.3-1c-0.5 0-1-0.5-1-1s0.5-1 1.1-0.9c0.5 0 0.9 0.5 0.9 1s-0.5 1-1 0.9zm417.1-2.9c0-0.5 0.4-1 0.9-1.1 0.5 0 1 0.4 1.1 0.9 0 0.6-0.4 1-0.9 1.1-0.6 0.1-1.1-0.3-1.1-0.9zm-416.9-1.1c-0.5-0.1-0.9-0.5-0.9-1.1 0.1-0.5 0.5-0.9 1.1-0.9 0.5 0.1 0.9 0.5 0.9 1.1-0.1 0.6-0.5 1-1.1 0.9zm416.5-2.8c-0.1-0.5 0.3-1 0.9-1.1 0.5-0.1 1 0.3 1.1 0.9 0.1 0.5-0.3 1-0.9 1.1-0.5 0-1-0.4-1.1-0.9zm-416.1-1.1c-0.5-0.1-0.9-0.6-0.9-1.1 0.1-0.5 0.6-0.9 1.1-0.9 0.5 0.1 0.9 0.6 0.8 1.1 0 0.5-0.5 0.9-1 0.9zm415.6-2.8c-0.1-0.5 0.3-1 0.8-1.1s1.1 0.3 1.1 0.8c0.1 0.5-0.3 1.1-0.9 1.1-0.4 0-0.9-0.3-1-0.8zm-415-1.2c-0.5-0.1-0.9-0.6-0.8-1.1s0.6-0.9 1.1-0.8 0.9 0.6 0.8 1.1-0.6 0.9-1.1 0.8zm414.3-2.7c-0.1-0.5 0.2-1 0.8-1.1 0.5-0.1 1.1 0.2 1.2 0.8 0.1 0.5-0.2 1.1-0.8 1.2-0.6 0-1.1-0.4-1.2-0.9zm-413.6-1.2c-0.5-0.1-0.9-0.6-0.8-1.2 0.1-0.5 0.7-0.9 1.2-0.8s0.9 0.6 0.8 1.2c-0.2 0.6-0.7 0.9-1.2 0.8zm412.8-2.7c-0.1-0.5 0.2-1 0.7-1.2 0.5-0.1 1.1 0.2 1.2 0.7s-0.2 1.1-0.7 1.2c-0.6 0.2-1.1-0.2-1.2-0.7zm-411.9-1.2c-0.5-0.1-0.9-0.7-0.7-1.2 0.1-0.5 0.7-0.8 1.2-0.7s0.8 0.7 0.7 1.2-0.7 0.8-1.2 0.7zm410.9-2.6c-0.1-0.5 0.2-1.1 0.7-1.2s1.1 0.2 1.2 0.7-0.2 1.1-0.7 1.2-1.1-0.2-1.2-0.7zm-409.9-1.3c-0.5-0.2-0.8-0.7-0.7-1.2 0.2-0.5 0.7-0.8 1.3-0.7 0.5 0.2 0.8 0.7 0.6 1.2-0.1 0.6-0.6 0.8-1.2 0.7zm408.8-2.5c-0.2-0.5 0.1-1.1 0.6-1.2 0.5-0.2 1.1 0.1 1.3 0.6s-0.1 1.1-0.6 1.3c-0.6 0.1-1.1-0.2-1.3-0.7zm-407.6-1.3c-0.5-0.2-0.8-0.7-0.6-1.3 0.2-0.5 0.8-0.8 1.3-0.6s0.8 0.7 0.6 1.3c-0.2 0.5-0.8 0.7-1.3 0.6zm406.3-2.5c-0.2-0.5 0.1-1.1 0.6-1.3s1.1 0.1 1.3 0.6-0.1 1.1-0.6 1.3c-0.6 0.2-1.2-0.1-1.3-0.6zm-404.9-1.3c-0.5-0.2-0.8-0.8-0.6-1.3s0.8-0.8 1.3-0.6 0.7 0.8 0.5 1.3-0.7 0.8-1.2 0.6zm403.4-2.4c-0.2-0.5 0-1.1 0.5-1.3s1.1 0 1.3 0.5 0 1.1-0.5 1.3-1.1 0-1.3-0.5zm-401.9-1.3c-0.5-0.2-0.7-0.8-0.5-1.3s0.8-0.7 1.3-0.5 0.7 0.8 0.5 1.3-0.8 0.7-1.3 0.5zm400.3-2.3c-0.2-0.5 0-1.1 0.5-1.3s1.1 0 1.3 0.5 0 1.1-0.5 1.3-1 0-1.3-0.5zm-398.6-1.4c-0.5-0.2-0.7-0.8-0.5-1.3s0.8-0.7 1.3-0.4c0.5 0.2 0.7 0.8 0.4 1.3-0.1 0.4-0.7 0.6-1.2 0.4zm396.9-2.2c-0.2-0.5-0.1-1.1 0.4-1.3s1.1-0.1 1.3 0.4 0 1.1-0.4 1.3c-0.4 0.3-1 0.2-1.3-0.4v0zm-395.2-1.3c-0.5-0.3-0.7-0.9-0.4-1.4s0.9-0.7 1.3-0.4c0.5 0.3 0.6 0.9 0.4 1.3-0.2 0.5-0.8 0.7-1.3 0.5zm393.3-2.1c-0.3-0.5-0.1-1.1 0.4-1.3 0.5-0.3 1.1-0.1 1.4 0.4s0.1 1.1-0.4 1.4c-0.5 0.1-1.1 0-1.4-0.5zm-391.3-1.4c-0.5-0.3-0.6-0.9-0.4-1.4 0.3-0.5 0.9-0.6 1.4-0.3s0.6 0.9 0.3 1.3c-0.3 0.5-0.9 0.7-1.3 0.4zm389.3-2c-0.3-0.5-0.1-1.1 0.3-1.4 0.5-0.3 1.1-0.2 1.4 0.3s0.1 1.1-0.3 1.4c-0.5 0.3-1.1 0.2-1.4-0.3zm-387.2-1.5c-0.5-0.3-0.6-0.9-0.3-1.4s0.9-0.6 1.4-0.3c0.4 0.3 0.6 0.9 0.3 1.4-0.4 0.5-1 0.6-1.4 0.3zm385.1-1.8c-0.3-0.4-0.2-1.1 0.3-1.4s1.1-0.2 1.4 0.3 0.2 1.1-0.3 1.4c-0.5 0.2-1.1 0.1-1.4-0.3zm-382.9-1.5c-0.5-0.3-0.6-0.9-0.3-1.4 0.3-0.4 0.9-0.5 1.4-0.2 0.4 0.3 0.5 0.9 0.2 1.4-0.3 0.4-0.9 0.5-1.3 0.2zm380.6-1.8c-0.3-0.4-0.2-1.1 0.2-1.4s1.1-0.2 1.4 0.2 0.2 1.1-0.2 1.4c-0.5 0.4-1.1 0.3-1.4-0.2v0zm-378.3-1.4c-0.4-0.3-0.5-1-0.2-1.4s1-0.5 1.4-0.2 0.5 0.9 0.2 1.4c-0.4 0.4-1 0.5-1.4 0.2zm375.9-1.6c-0.3-0.4-0.3-1 0.1-1.4 0.4-0.3 1.1-0.3 1.4 0.1s0.3 1.1-0.2 1.4c-0.4 0.3-1 0.2-1.3-0.1zm-373.4-1.6c-0.4-0.3-0.5-1-0.1-1.4s1-0.5 1.4-0.1 0.5 1 0.1 1.4-1 0.4-1.4 0.1zm370.9-1.5c-0.3-0.4-0.3-1 0.1-1.4s1-0.3 1.4 0.1 0.3 1.1-0.1 1.4c-0.5 0.3-1.1 0.3-1.4-0.1zm-368.3-1.5c-0.4-0.4-0.4-1-0.1-1.4 0.4-0.4 1-0.4 1.4-0.1 0.4 0.4 0.4 1 0.1 1.4-0.4 0.4-1 0.4-1.4 0.1zm365.6-1.5c-0.4-0.4-0.4-1 0-1.4s1-0.4 1.4 0 0.3 1-0.1 1.4c-0.3 0.4-0.9 0.4-1.3 0zm-362.9-1.5c-0.4-0.4-0.4-1 0-1.4s1-0.4 1.4 0 0.4 1 0 1.4-1 0.4-1.4 0zm360.2-1.3c-0.4-0.4-0.4-1 0-1.4s1-0.4 1.4 0 0.4 1 0 1.4-1.1 0.4-1.4 0zm-357.4-1.5c-0.4-0.4-0.4-1 0-1.4s1-0.3 1.4 0.1 0.4 1 0 1.4c-0.4 0.3-1 0.3-1.4-0.1zm354.5-1.2c-0.4-0.4-0.4-1-0.1-1.4 0.4-0.4 1-0.4 1.4-0.1 0.4 0.4 0.4 1 0.1 1.4-0.4 0.4-1 0.4-1.4 0.1zm-351.6-1.5c-0.4-0.4-0.3-1 0.1-1.4s1-0.3 1.4 0.1c0.3 0.4 0.3 1-0.1 1.4-0.4 0.3-1 0.3-1.4-0.1zm348.6-1.1c-0.4-0.4-0.5-1-0.1-1.4s1-0.5 1.4-0.1 0.5 1 0.1 1.4-1 0.4-1.4 0.1zm-345.5-1.5c-0.3-0.4-0.3-1.1 0.1-1.4s1.1-0.3 1.4 0.2c0.3 0.4 0.3 1-0.2 1.4-0.4 0.2-1 0.2-1.3-0.2zm342.4-1c-0.4-0.3-0.5-0.9-0.2-1.4 0.3-0.4 1-0.5 1.4-0.2s0.5 1 0.2 1.4-1 0.5-1.4 0.2zm-339.3-1.5c-0.3-0.4-0.2-1.1 0.2-1.4s1.1-0.2 1.4 0.2 0.2 1-0.2 1.4c-0.5 0.3-1.1 0.2-1.4-0.2zm336.1-0.9c-0.4-0.3-0.5-0.9-0.2-1.4s0.9-0.6 1.4-0.3c0.4 0.3 0.5 0.9 0.2 1.4s-0.9 0.6-1.4 0.3zm-332.8-1.4c-0.3-0.5-0.2-1.1 0.3-1.4s1.1-0.2 1.4 0.3 0.2 1.1-0.3 1.4c-0.5 0.2-1.1 0.1-1.4-0.3zm329.6-0.8c-0.5-0.3-0.6-0.9-0.3-1.4s0.9-0.6 1.4-0.3 0.6 0.9 0.3 1.4c-0.4 0.5-1 0.6-1.4 0.3zm-326.3-1.5c-0.3-0.5-0.2-1.1 0.3-1.4s1.1-0.1 1.4 0.3c0.3 0.5 0.1 1-0.3 1.3-0.5 0.4-1.1 0.3-1.4-0.2zm322.9-0.6c-0.5-0.3-0.6-0.9-0.4-1.4 0.3-0.5 0.9-0.6 1.4-0.4 0.5 0.3 0.6 0.9 0.3 1.4-0.2 0.5-0.8 0.7-1.3 0.4zm-319.5-1.4c-0.3-0.5-0.1-1.1 0.4-1.4s1.1-0.1 1.3 0.4 0.1 1.1-0.4 1.3c-0.4 0.3-1 0.1-1.3-0.3zm316-0.6c-0.5-0.3-0.6-0.9-0.4-1.3 0.3-0.5 0.9-0.7 1.4-0.4s0.7 0.9 0.4 1.4c-0.3 0.4-0.9 0.6-1.4 0.3zm-312.5-1.4c-0.3-0.5-0.1-1.1 0.4-1.3s1.1-0.1 1.3 0.4 0 1-0.4 1.3c-0.5 0.3-1.1 0.1-1.3-0.4zm309-0.4c-0.5-0.2-0.7-0.8-0.5-1.3s0.8-0.7 1.3-0.5 0.7 0.8 0.5 1.3-0.8 0.7-1.3 0.5zm-305.5-1.4c-0.2-0.5 0-1.1 0.5-1.3s1.1 0 1.3 0.5 0 1.1-0.5 1.3-1.1 0-1.3-0.5zm301.9-0.3c-0.5-0.2-0.7-0.8-0.5-1.3s0.8-0.7 1.3-0.5 0.7 0.8 0.5 1.3-0.8 0.7-1.3 0.5zm-298.3-1.3c-0.2-0.5 0-1.1 0.5-1.3s1.1 0 1.3 0.5 0 1.1-0.5 1.3-1 0-1.3-0.5zm294.7-0.2c-0.5-0.2-0.8-0.8-0.6-1.3s0.8-0.8 1.3-0.6 0.8 0.8 0.5 1.3c-0.2 0.5-0.7 0.8-1.2 0.6zm-291-1.3c-0.2-0.5 0.1-1.1 0.6-1.3s1.1 0.1 1.3 0.6-0.1 1.1-0.6 1.3c-0.5 0.1-1.1-0.1-1.3-0.6zm287.2-0.1c-0.5-0.2-0.8-0.7-0.6-1.3 0.2-0.5 0.7-0.8 1.3-0.6 0.5 0.2 0.8 0.8 0.6 1.3s-0.7 0.7-1.3 0.6zm-283.4-1.3c-0.2-0.5 0.1-1.1 0.6-1.3s1.1 0.1 1.3 0.6-0.1 1.1-0.6 1.2c-0.6 0.3-1.1 0-1.3-0.5zm279.7 0c-0.5-0.2-0.8-0.7-0.7-1.2 0.2-0.5 0.7-0.8 1.2-0.7 0.5 0.2 0.8 0.7 0.6 1.3-0.1 0.5-0.6 0.8-1.1 0.6zm-275.9-1.2c-0.1-0.5 0.1-1.1 0.7-1.2 0.5-0.1 1.1 0.2 1.2 0.7s-0.2 1.1-0.7 1.2-1-0.2-1.2-0.7zm272.1 0.1c-0.5-0.1-0.8-0.7-0.7-1.2s0.7-0.9 1.2-0.7c0.5 0.1 0.8 0.7 0.7 1.2-0.2 0.5-0.7 0.8-1.2 0.7zm-268.2-1.2c-0.1-0.5 0.2-1.1 0.7-1.2s1.1 0.2 1.2 0.7-0.2 1-0.7 1.2c-0.6 0.1-1.1-0.2-1.2-0.7zm264.3 0.3c-0.5-0.1-0.9-0.6-0.8-1.2 0.1-0.5 0.7-0.9 1.2-0.8s0.9 0.7 0.8 1.2c-0.1 0.6-0.6 0.9-1.2 0.8zm-260.4-1.2c-0.1-0.5 0.2-1.1 0.8-1.2 0.5-0.1 1.1 0.2 1.2 0.8 0.1 0.5-0.3 1-0.8 1.1-0.6 0.2-1.1-0.1-1.2-0.7zm256.5 0.4c-0.5-0.1-0.9-0.6-0.8-1.1s0.6-0.9 1.2-0.8c0.5 0.1 0.9 0.6 0.8 1.2-0.1 0.5-0.6 0.8-1.2 0.7zm-252.6-1.1c-0.1-0.5 0.3-1 0.8-1.1s1 0.3 1.1 0.8-0.3 1-0.8 1.1-1-0.3-1.1-0.8zm248.7 0.5c-0.5-0.1-0.9-0.6-0.8-1.1s0.6-0.9 1.1-0.9c0.5 0.1 0.9 0.6 0.8 1.1 0 0.6-0.5 1-1.1 0.9zm-244.8-1.1c-0.1-0.5 0.3-1 0.9-1.1 0.5-0.1 1 0.3 1.1 0.9 0 0.5-0.3 1-0.9 1.1-0.5 0-1-0.4-1.1-0.9zm240.9 0.6c-0.5-0.1-0.9-0.5-0.9-1.1 0-0.5 0.5-1 1.1-0.9 0.5 0.1 0.9 0.6 0.9 1.1-0.1 0.6-0.6 1-1.1 0.9zm-236.9-1c0-0.5 0.4-1 0.9-1.1 0.5 0 1 0.4 1.1 0.9 0 0.5-0.4 1-0.9 1-0.5 0.1-1-0.3-1.1-0.8zm232.9 0.8c-0.5 0-0.9-0.5-0.9-1 0-0.6 0.4-1 1-1h0.1c0.5 0 1 0.5 0.9 1.1 0 0.5-0.5 0.9-1.1 0.9zm-228.9-1c0-0.5 0.4-1 0.9-1 0.6 0 1 0.4 1 1s-0.4 1-1 1c-0.5-0.1-0.9-0.5-0.9-1zm225 0.8c-0.6 0-1-0.4-1-1s0.4-1 1-1 1 0.4 1 1-0.5 1-1 1zm-221-1c0-0.6 0.4-1 1-1s1 0.4 1 1-0.4 1-1 1c-0.5 0.1-1-0.4-1-1zm217 1c-0.6 0-1-0.4-1-1s0.4-1 1-1 1 0.4 1 1-0.5 1-1 1zm-4 0c-0.6 0-1-0.4-1-1s0.4-1 1-1 1 0.4 1 1-0.5 1-1 1zm-4 0c-0.6 0-1-0.4-1-1s0.4-1 1-1 1 0.4 1 1-0.5 1-1 1zm-4 0c-0.6 0-1-0.4-1-1s0.4-1 1-1 1 0.4 1 1-0.5 1-1 1zm-4 0c-0.6 0-1-0.4-1-1s0.4-1 1-1 1 0.4 1 1-0.5 1-1 1zm-4 0c-0.6 0-1-0.4-1-1s0.4-1 1-1 1 0.4 1 1-0.5 1-1 1zm-4 0c-0.6 0-1-0.4-1-1s0.4-1 1-1 1 0.4 1 1-0.5 1-1 1zm-4 0c-0.6 0-1-0.4-1-1s0.4-1 1-1 1 0.4 1 1-0.5 1-1 1zm-4 0c-0.6 0-1-0.4-1-1s0.4-1 1-1 1 0.4 1 1-0.5 1-1 1zm-4 0c-0.6 0-1-0.4-1-1s0.4-1 1-1 1 0.4 1 1-0.5 1-1 1zm-4 0c-0.6 0-1-0.4-1-1s0.4-1 1-1 1 0.4 1 1-0.5 1-1 1zm-4 0c-0.6 0-1-0.4-1-1s0.4-1 1-1 1 0.4 1 1-0.5 1-1 1zm-4 0c-0.6 0-1-0.4-1-1s0.4-1 1-1 1 0.4 1 1-0.5 1-1 1zm-4 0c-0.6 0-1-0.4-1-1s0.4-1 1-1 1 0.4 1 1-0.5 1-1 1zm-4 0c-0.6 0-1-0.4-1-1s0.4-1 1-1 1 0.4 1 1-0.5 1-1 1zm-4 0c-0.6 0-1-0.4-1-1s0.4-1 1-1 1 0.4 1 1-0.5 1-1 1zm-4 0c-0.6 0-1-0.4-1-1s0.4-1 1-1 1 0.4 1 1-0.5 1-1 1zm-4 0c-0.6 0-1-0.4-1-1s0.4-1 1-1 1 0.4 1 1-0.5 1-1 1zm-4 0c-0.6 0-1-0.4-1-1s0.4-1 1-1 1 0.4 1 1-0.5 1-1 1zm-4 0c-0.6 0-1-0.4-1-1s0.4-1 1-1 1 0.4 1 1-0.5 1-1 1zm-4 0c-0.6 0-1-0.4-1-1s0.4-1 1-1 1 0.4 1 1-0.5 1-1 1zm-4 0c-0.6 0-1-0.4-1-1s0.4-1 1-1 1 0.4 1 1-0.5 1-1 1zm-4 0c-0.6 0-1-0.4-1-1s0.4-1 1-1 1 0.4 1 1-0.5 1-1 1zm-4 0c-0.6 0-1-0.4-1-1s0.4-1 1-1 1 0.4 1 1-0.5 1-1 1zm-4 0c-0.6 0-1-0.4-1-1s0.4-1 1-1 1 0.4 1 1-0.5 1-1 1zm-4 0c-0.6 0-1-0.4-1-1s0.4-1 1-1 1 0.4 1 1-0.5 1-1 1zm-4 0c-0.6 0-1-0.4-1-1s0.4-1 1-1 1 0.4 1 1-0.5 1-1 1zm-4 0c-0.6 0-1-0.4-1-1s0.4-1 1-1 1 0.4 1 1-0.5 1-1 1zm-4 0c-0.6 0-1-0.4-1-1s0.4-1 1-1 1 0.4 1 1-0.5 1-1 1zm-4 0c-0.6 0-1-0.4-1-1s0.4-1 1-1 1 0.4 1 1-0.5 1-1 1zm-4 0c-0.6 0-1-0.4-1-1s0.4-1 1-1 1 0.4 1 1-0.5 1-1 1zm-4 0c-0.6 0-1-0.4-1-1s0.4-1 1-1 1 0.4 1 1-0.5 1-1 1zm-4 0c-0.6 0-1-0.4-1-1s0.4-1 1-1 1 0.4 1 1-0.5 1-1 1zm-4 0c-0.6 0-1-0.4-1-1s0.4-1 1-1 1 0.4 1 1-0.5 1-1 1zm-4 0c-0.6 0-1-0.4-1-1s0.4-1 1-1 1 0.4 1 1-0.5 1-1 1zm-4 0c-0.6 0-1-0.4-1-1s0.4-1 1-1 1 0.4 1 1-0.5 1-1 1zm-4 0c-0.6 0-1-0.4-1-1s0.4-1 1-1 1 0.4 1 1-0.5 1-1 1zm-4 0c-0.6 0-1-0.4-1-1s0.4-1 1-1 1 0.4 1 1-0.5 1-1 1zm-4 0c-0.6 0-1-0.4-1-1s0.4-1 1-1 1 0.4 1 1-0.5 1-1 1zm-4 0c-0.6 0-1-0.4-1-1s0.4-1 1-1 1 0.4 1 1-0.5 1-1 1zm-4 0c-0.6 0-1-0.4-1-1s0.4-1 1-1 1 0.4 1 1-0.5 1-1 1zm-4 0c-0.6 0-1-0.4-1-1s0.4-1 1-1 1 0.4 1 1-0.5 1-1 1zm-4 0c-0.6 0-1-0.4-1-1s0.4-1 1-1 1 0.4 1 1-0.5 1-1 1zm-4 0c-0.6 0-1-0.4-1-1s0.4-1 1-1 1 0.4 1 1-0.5 1-1 1zm-4 0c-0.6 0-1-0.4-1-1s0.4-1 1-1 1 0.4 1 1-0.5 1-1 1zm-4 0c-0.6 0-1-0.4-1-1s0.4-1 1-1 1 0.4 1 1-0.5 1-1 1zm-4 0c-0.6 0-1-0.4-1-1s0.4-1 1-1 1 0.4 1 1-0.5 1-1 1zm-4 0c-0.6 0-1-0.4-1-1s0.4-1 1-1 1 0.4 1 1-0.5 1-1 1zm-4 0c-0.6 0-1-0.4-1-1s0.4-1 1-1 1 0.4 1 1-0.5 1-1 1zm-4 0c-0.6 0-1-0.4-1-1s0.4-1 1-1 1 0.4 1 1-0.5 1-1 1zm-4 0c-0.6 0-1-0.4-1-1s0.4-1 1-1 1 0.4 1 1-0.5 1-1 1zm-4 0c-0.6 0-1-0.4-1-1s0.4-1 1-1 1 0.4 1 1-0.5 1-1 1zm-4 0c-0.6 0-1-0.4-1-1s0.4-1 1-1 1 0.4 1 1-0.5 1-1 1zm-4 0c-0.6 0-1-0.4-1-1s0.4-1 1-1 1 0.4 1 1-0.5 1-1 1z"/>
	<path class="st1" d="m340 372.3h-217c-67.8 0-123-54.9-123-122.3s55.2-122.3 123-122.3h217c67.8 0 123 54.8 123 122.3s-55.2 122.3-123 122.3zm-217-241.6c-66.2 0-120 53.5-120 119.3s53.8 119.3 120 119.3h217c66.2 0 120-53.5 120-119.3s-53.8-119.3-120-119.3h-217z"/>
	
		<defs>
			<rect id="b" x="16.3" y="165.1" width="434.2" height="71.6"/>
		</defs>
		<clipPath id="a">
			<use xlink:href="#b"/>
		</clipPath>
		<g class="st2">
			<path class="st0" d="m122.5 153.9h218c51.4 0 93 41.6 93 93s-41.6 93-93 93h-218c-51.4 0-93-41.6-93-93s41.6-93 93-93z"/>
		</g>
	
	<path class="st3" d="m186.5 174.3h8.6v53.3h-8.6v-53.3z"/>
	<path class="st3" d="m225.1 210.6c0 8.3-6.8 9-9 9-5.3 0-6-4.9-6-7.5v-20.6h-8.6v20.3c0 4.9 1.5 9.4 4.5 12 2.6 2.6 6 3.8 10.1 3.8 3 0 6.8-0.8 9-3v3h8.6v-36h-8.6v19z"/>
	<path class="st3" d="m250.6 178.4h-8.6v13.1h-6.4v8.3h6.4v27.8h8.6v-27.8h6.4v-8.3h-6.4v-13.1z"/>
	<path class="st3" d="m284 216.6c-2 1.6-4.5 2.6-7.1 2.6-6 0-10.1-4.5-10.1-10.5s4.1-10.1 10.1-10.1c2.6-0.1 5.2 0.8 7.1 2.6l1.1 1.1 6-5.6-1.5-1.1c-3.5-3.1-8-4.9-12.8-4.9-10.2 0-18.4 8.2-18.4 18.4 0 10.1 8.2 18.4 18.4 18.4 4.7 0 9.2-1.7 12.8-4.9l1.5-1.1-6-6-1.1 1.1z"/>
	<path class="st3" d="m321.5 194.5c-2.4-2.6-5.8-4-9.4-3.8-3-0.2-6 0.9-8.3 3v-19.5h-8.6v53.3h8.6v-19.9c0-8.3 5.6-9 7.9-9 5.3 0 4.9 4.9 4.9 7.5v21h8.6v-20.6c0.1-4.9-1.1-9.4-3.7-12z"/>
	<circle class="st4" cx="276.5" cy="209.1" r="6"/>
	<path class="st3" d="m174.5 214.4c-3.3 3.2-7.8 4.9-12.4 4.9-9.4 0-16.1-7.5-16.1-17.6s6.8-17.6 16.5-17.6c4.7 0.1 9.1 1.9 12.4 5.3l1.1 1.1 5.6-5.6-1.1-1.1c-4.8-4.8-11.2-7.5-18-7.5-14.3-0.4-24.8 10.9-24.8 25.5s10.5 25.9 24.4 25.9c6.8 0.1 13.3-2.6 18-7.5l1.1-1.1-5.6-5.6-1.1 0.9z"/>

<g class="st5">
	<path class="st0" d="m65.1 252.1h14.2v4.5h-4.9v16.7h-4.6v-16.7h-4.8v-4.5z"/>
	<path class="st0" d="m82.7 262.6c0-3.1 1-5.7 3.1-7.7s4.5-3.1 7.4-3.1c3.1 0 5.7 1 7.8 3.1 2.1 2 3.1 4.6 3.1 7.8 0 3.1-1 5.7-3 7.7-2 2.1-4.6 3.1-7.7 3.1s-5.6-1-7.6-3.1c-2.2-2-3.1-4.6-3.1-7.8zm10.6-6.5c-1.8 0-3.2 0.6-4.3 1.8-1.1 1.3-1.6 2.9-1.6 4.9 0 1.9 0.6 3.4 1.7 4.7 1.1 1.2 2.5 1.9 4.2 1.9 1.8 0 3.2-0.6 4.3-1.8s1.6-2.8 1.6-4.8-0.5-3.5-1.6-4.7c-1.1-1.4-2.5-2-4.3-2z"/>
	<path class="st0" d="m109.2 252.1h7.2c1.9 0 3.5 0.6 4.7 1.7s1.8 2.6 1.8 4.5c0 1.2-0.3 2.4-0.9 3.5s-1.5 1.9-2.7 2.4-2.2 0.8-3 0.8l-2.6 0.1v8.2h-4.5v-21.2zm4.4 3.8v5.4h1.8c0.8 0 1.4-0.3 2-0.8 0.5-0.5 0.8-1.2 0.8-1.9 0-0.9-0.3-1.5-0.9-2s-1.5-0.7-2.6-0.7h-1.1z"/>
	<path class="st0" d="m145.3 252.1h3.5l8.6 21.2h-4.6l-1.7-4.2h-8.1l-1.7 4.2h-4.6l8.6-21.2zm1.7 6.9-2.5 6.2h5l-2.5-6.2z"/>
	<path class="st0" d="m162 252.1h7.2c1.9 0 3.5 0.6 4.7 1.7s1.8 2.6 1.8 4.5c0 1.2-0.3 2.4-0.9 3.5s-1.5 1.9-2.7 2.4-2.2 0.8-3 0.8l-2.6 0.1v8.2h-4.5v-21.2zm4.5 3.8v5.4h1.8c0.8 0 1.4-0.3 2-0.8 0.5-0.5 0.8-1.2 0.8-1.9 0-0.9-0.3-1.5-0.9-2s-1.5-0.7-2.6-0.7h-1.1z"/>
	<path class="st0" d="m180.8 252.1h7.2c1.9 0 3.5 0.6 4.7 1.7s1.8 2.6 1.8 4.5c0 1.2-0.3 2.4-0.9 3.5s-1.5 1.9-2.7 2.4-2.2 0.8-3 0.8l-2.6 0.1v8.2h-4.5v-21.2zm4.5 3.8v5.4h1.8c0.8 0 1.4-0.3 2-0.8 0.5-0.5 0.8-1.2 0.8-1.9 0-0.9-0.3-1.5-0.9-2s-1.5-0.7-2.6-0.7h-1.1z"/>
	<path class="st0" d="m209.5 252.1h7.2c3.1 0 5.6 1 7.4 2.9 1.9 1.9 2.8 4.5 2.8 7.7s-1 5.7-2.9 7.7c-1.9 1.9-4.5 2.9-7.7 2.9h-6.8v-21.2zm4.6 4v13.1h1.8c1.9 0 3.4-0.5 4.6-1.5s1.8-2.7 1.8-5.1c0-1.4-0.3-2.6-0.9-3.7s-1.4-1.8-2.5-2.2-2.2-0.6-3.2-0.6h-1.6z"/>
	<path class="st0" d="m231.9 252.1h11.9v4.2h-7.3v4.3h7.3v4.1h-7.3v4.4h7.3v4.2h-11.9v-21.2z"/>
	<path class="st0" d="m247.2 252.1h4.6l5.4 14.1 5.4-14.1h4.6l-8 21.2h-4l-8-21.2z"/>
	<path class="st0" d="m271.2 252.1h11.9v4.2h-7.3v4.3h7.3v4.1h-7.3v4.4h7.3v4.2h-11.9v-21.2z"/>
	<path class="st0" d="m288.3 252.1h4.5v16.6h6.2v4.6h-10.8v-21.2z"/>
	<path class="st0" d="m302.6 262.6c0-3.1 1-5.7 3.1-7.7s4.5-3.1 7.4-3.1c3.1 0 5.7 1 7.8 3.1 2.1 2 3.1 4.6 3.1 7.8 0 3.1-1 5.7-3 7.7-2 2.1-4.6 3.1-7.7 3.1s-5.6-1-7.6-3.1c-2.1-2-3.1-4.6-3.1-7.8zm10.7-6.5c-1.8 0-3.2 0.6-4.3 1.8-1.1 1.3-1.6 2.9-1.6 4.9 0 1.9 0.6 3.4 1.7 4.7 1.1 1.2 2.5 1.9 4.2 1.9 1.8 0 3.2-0.6 4.3-1.8s1.6-2.8 1.6-4.8-0.5-3.5-1.6-4.7c-1.1-1.4-2.6-2-4.3-2z"/>
	<path class="st0" d="m329.1 252.1h7.2c1.9 0 3.5 0.6 4.7 1.7s1.8 2.6 1.8 4.5c0 1.2-0.3 2.4-0.9 3.5s-1.5 1.9-2.7 2.4-2.2 0.8-3 0.8l-2.6 0.1v8.2h-4.5v-21.2zm4.5 3.8v5.4h1.8c0.8 0 1.4-0.3 2-0.8 0.5-0.5 0.8-1.2 0.8-1.9 0-0.9-0.3-1.5-0.9-2s-1.5-0.7-2.6-0.7h-1.1z"/>
	<path class="st0" d="m347.8 252.1h11.9v4.2h-7.3v4.3h7.3v4.1h-7.3v4.4h7.3v4.2h-11.9v-21.2z"/>
	<path class="st0" d="m364.9 252.1h7c2.1 0 3.8 0.6 5 1.7s1.8 2.6 1.8 4.5c0 1.1-0.3 2.2-0.8 3.4-0.6 1.2-1.6 2.1-3.1 2.8l5.9 8.8h-5.2l-5.5-8.2h-0.5v8.2h-4.6v-21.2zm4.6 3.7v5.5h1c2.4 0 3.6-1 3.6-2.9 0-0.8-0.3-1.4-0.9-1.9s-1.5-0.7-2.6-0.7h-1.1z"/>
	<path class="st0" d="m397.3 254-2.8 3.1c-1.5-0.9-2.6-1.3-3.2-1.3-0.5 0-0.9 0.2-1.3 0.6s-0.5 0.8-0.5 1.4c0 1 0.9 1.9 2.8 2.7 1.4 0.6 2.4 1.1 3.1 1.6s1.3 1.1 1.8 2c0.5 0.8 0.7 1.8 0.7 2.8 0 1.8-0.7 3.4-2.2 4.7s-3.2 2-5.2 2c-2.2 0-4.4-1-6.5-3.1l3-3.5c1.3 1.4 2.6 2.1 3.8 2.1 0.5 0 1.1-0.2 1.6-0.7s0.8-1 0.8-1.5c0-1.1-1.2-2.1-3.5-2.9-1.3-0.5-2.3-0.9-2.8-1.4-0.6-0.4-1-1-1.4-1.9-0.4-0.8-0.6-1.6-0.6-2.5 0-1.9 0.6-3.4 1.8-4.6s2.8-1.8 4.8-1.8c2.3 0 4.2 0.7 5.8 2.2z"/>
</g>
<g class="st5">
	<path class="st0" d="M187,286.1h4.6v21.2H187V286.1z"/>
	<path class="st0" d="m211.5 286.1h4.5v21.2h-4.4l-9.7-13.7v13.7h-4.6v-21.2h4.5l9.7 13.6v-13.6z"/>
	<path class="st0" d="m221.8 286.1h7.2c3.1 0 5.6 1 7.4 2.9 1.9 1.9 2.8 4.5 2.8 7.7s-1 5.7-2.9 7.7c-1.9 1.9-4.5 2.9-7.7 2.9h-6.8v-21.2zm4.5 4v13.1h1.8c1.9 0 3.4-0.5 4.6-1.5s1.8-2.7 1.8-5.1c0-1.4-0.3-2.6-0.9-3.7s-1.4-1.8-2.5-2.2-2.2-0.6-3.2-0.6h-1.6z"/>
	<path class="st0" d="m244.2 286.1h4.6v21.2h-4.6v-21.2z"/>
	<path class="st0" d="m262 286.1h3.5l8.6 21.2h-4.6l-1.7-4.2h-8.1l-1.7 4.2h-4.6l8.6-21.2zm1.8 6.9-2.5 6.2h5l-2.5-6.2z"/>
</g>
<g class="st5">
	<path class="st0" d="m197.7 337.4h5.9v3.8h-14.4l7-8.9c1-1.3 1.7-2.4 2.2-3.2 0.4-0.8 0.7-1.6 0.7-2.4s-0.3-1.4-0.8-2c-0.5-0.5-1.2-0.8-2-0.8-0.9 0-1.6 0.3-2 1-0.4 0.6-0.7 1.7-0.7 3.1h-4.6c0-2.5 0.7-4.4 2.2-5.8s3.3-2 5.5-2c2 0 3.7 0.6 4.9 1.8s1.9 2.7 1.9 4.5-0.7 3.8-2.2 6l-1.2 1.8c-0.5 0.7-1.1 1.5-1.8 2.5l-0.6 0.6z"/>
	<path class="st0" d="m215.5 320.4c2.4 0 4.4 0.9 5.8 2.8s2.2 4.4 2.2 7.5c0 3.7-0.8 6.4-2.4 8.1s-3.5 2.7-5.6 2.7c-2.4 0-4.4-0.9-5.9-2.8s-2.2-4.4-2.2-7.4c0-3.3 0.7-5.9 2.2-7.9s3.4-3 5.8-3h0.1zm3.7 10.7c0-2.1-0.3-3.7-1-4.9s-1.6-1.8-2.7-1.8c-1.2 0-2.1 0.6-2.8 1.8s-1 2.9-1 5c0 1.9 0.3 3.5 1 4.6s1.6 1.7 2.7 1.7 2-0.6 2.7-1.7 1.1-2.8 1.1-4.7z"/>
	<path class="st0" d="m230.2 320.7h6.7v20.5h-4.5v-16.8h-3l0.8-3.7z"/>
	<path class="st0" d="m252.8 320.7h5.4l-5.1 6.9c0.7-0.1 1.3-0.2 1.9-0.2 1.8 0 3.3 0.7 4.6 2s1.9 2.9 1.9 4.7c0 2.1-0.8 3.9-2.3 5.3s-3.4 2.1-5.8 2.1c-2.1 0-3.9-0.7-5.3-2.1s-2.1-3.1-2.1-5.2c0-1.5 0.3-3.1 1-4.7s1.5-3 2.3-4.2l3.5-4.6zm4 13.4c0-0.9-0.3-1.7-0.9-2.3s-1.3-0.9-2.2-0.9-1.7 0.3-2.4 1c-0.6 0.6-1 1.4-1 2.3s0.3 1.7 1 2.3c0.6 0.6 1.4 0.9 2.4 0.9 0.8 0 1.6-0.3 2.2-1 0.6-0.6 0.9-1.4 0.9-2.3z"/>
</g>
</svg>
